Coordinates
version=1
nRows=19
nColumns=24
inDegrees=yes

Units are S.I. units (second, meters, Newtons, ...)
Angles are in degrees.

endheader
time	pelvis_tilt	pelvis_list	pelvis_rotation	pelvis_tx	pelvis_ty	pelvis_tz	hip_flexion_r	hip_adduction_r	hip_rotation_r	knee_angle_r	ankle_angle_r	subtalar_angle_r	mtp_angle_r	hip_flexion_l	hip_adduction_l	hip_rotation_l	knee_angle_l	ankle_angle_l	subtalar_angle_l	mtp_angle_l	lumbar_extension	lumbar_bending	lumbar_rotation
      1.20450000	      0.23306448	     -4.12532838	     -7.20562763	      0.08483476	      0.96272408	      0.35787020	    -21.14576707	      6.07565224	      3.61266687	     -7.87944882	     11.59578898	     -3.02567449	      1.84423827	     26.85153376	     -4.98694043	     -8.29007271	     -1.60649299	      5.89693135	     -1.41594486	      2.30706742	     -1.95841540	      7.71438066	     11.48219279
      1.20866667	      0.12933181	     -4.00737595	     -7.27550111	      0.09100123	      0.96187588	      0.35769032	    -21.24633664	      5.88579715	      3.58602577	     -8.13423573	     11.42417600	     -3.03881391	      2.13533301	     27.01954678	     -4.87327113	     -8.09166533	     -2.12824074	      5.59529270	     -1.97326134	      2.36074964	     -1.77797090	      7.58621174	     11.60242046
      1.21283333	      0.03554046	     -3.86784461	     -7.34763963	      0.09721692	      0.96108718	      0.35751765	    -21.34369996	      5.67167328	      3.55761857	     -8.40825150	     11.20005527	     -3.08400854	      2.49239445	     27.18303962	     -4.74119406	     -7.93213428	     -2.70176412	      5.28862142	     -2.48076232	      2.43915095	     -1.60865524	      7.41045331	     11.67807809
      1.21700000	     -0.03482789	     -3.69170552	     -7.42733660	      0.10348335	      0.96036790	      0.35735849	    -21.44451252	      5.41380335	      3.51921848	     -8.71732459	     10.95502278	     -3.17044726	      2.62634305	     27.34154358	     -4.58156586	     -7.88127698	     -3.35141053	      5.04050974	     -2.80188785	      2.46993763	     -1.47796319	      7.18006285	     11.72099487
      1.22116667	     -0.13610505	     -3.53066907	     -7.48394852	      0.10977952	      0.95962879	      0.35712377	    -21.48733812	      5.17153609	      3.37540297	     -9.05749309	     10.63951310	     -3.13090525	      7.80010785	     27.51679664	     -4.41359456	     -7.67792137	     -3.97529379	      4.57774785	     -3.48116325	      3.87299912	     -1.28176139	      6.98729453	     11.77877922
      1.22533333	     -0.25359260	     -3.37607846	     -7.52706089	      0.11610657	      0.95892355	      0.35691038	    -21.53916179	      4.95979276	      3.38095234	     -9.35693784	     10.31393170	     -3.29306205	      7.83344553	     27.73599805	     -4.25644341	     -7.51481318	     -4.67660739	      4.15535376	     -3.98378840	      3.85831359	     -1.06811321	      6.79517803	     11.88100392
      1.22950000	     -0.37126325	     -3.20225327	     -7.57127855	      0.12245462	      0.95826287	      0.35665880	    -21.55086184	      4.72293247	      3.34684263	     -9.72660427	      9.99730560	     -3.41536382	      7.90650594	     27.94664593	     -4.07165273	     -7.32601279	     -5.37355511	      3.68153238	     -4.57832046	      3.85922322	     -0.86701500	      6.58851399	     11.94466217
      1.23366667	     -0.47899273	     -3.02820581	     -7.60597813	      0.12883289	      0.95765693	      0.35639084	    -21.55409482	      4.48580852	      3.28684538	    -10.12701706	      9.66214745	     -3.52151412	      8.03942683	     28.14885193	     -3.87845926	     -7.13541797	     -6.08514760	      3.16204626	     -5.22042807	      3.88158856	     -0.65853840	      6.37636065	     11.99839003
      1.23783333	     -0.60748769	     -2.83662651	     -7.61814457	      0.13527279	      0.95706647	      0.35610629	    -21.53585297	      4.24447363	      3.23802530	    -10.51389680	      9.26356152	     -3.62575534	      8.16984927	     28.38618026	     -3.66319091	     -6.96749096	     -6.82910944	      2.60903241	     -5.76162260	      3.90901052	     -0.40800212	      6.13799999	     12.05577459
      1.24200000	     -0.73825626	     -2.64180355	     -7.62563530	      0.14171999	      0.95652039	      0.35577722	    -21.48136530	      3.99836067	      3.17180921	    -10.96084999	      8.85333124	     -3.74377879	      8.35108250	     28.62118556	     -3.43465138	     -6.77312812	     -7.56822403	      2.02415550	     -6.38205541	      3.95411570	     -0.17484084	      5.91139437	     12.10149518
      1.24616667	     -0.86627884	     -2.44368593	     -7.62182936	      0.14819951	      0.95602990	      0.35543889	    -21.41055489	      3.75396945	      3.10127060	    -11.43625742	      8.40207980	     -3.87082324	      8.57056463	     28.85551314	     -3.19732652	     -6.59052444	     -8.32027454	      1.42446621	     -6.97645309	      4.01147709	      0.07631716	      5.66921338	     12.14257477
      1.25033333	     -0.98445056	     -2.23984728	     -7.61758102	      0.15466048	      0.95560266	      0.35506700	    -21.30127197	      3.49834508	      3.00382833	    -11.99730612	      7.93169827	     -4.00807615	      8.92994254	     29.07152194	     -2.94576482	     -6.38175802	     -9.05773302	      0.81525413	     -7.61396035	      4.10854083	      0.29156521	      5.43407957	     12.16716747
      1.25450000	     -1.11677100	     -2.02831850	     -7.59227610	      0.16117372	      0.95520365	      0.35467129	    -21.17215331	      3.24589439	      2.91776645	    -12.55558965	      7.41010789	     -4.13712865	      9.38221358	     29.31206053	     -2.67981799	     -6.19054712	     -9.82131265	      0.20955378	     -8.19155507	      4.22799167	      0.54464836	      5.18236980	     12.19690210
      1.25866667	     -1.24674254	     -1.81118574	     -7.55559152	      0.16770421	      0.95486366	      0.35425955	    -21.02122708	      2.99222204	      2.83325204	    -13.14672689	      6.83054525	     -4.27816738	      9.85550322	     29.55444957	     -2.40633787	     -6.02671283	    -10.60014547	     -0.36904963	     -8.69597275	      4.34520810	      0.79532810	      4.92429123	     12.22092081
      1.26283333	     -1.31968057	     -1.54760393	     -7.47446315	      0.17431851	      0.95461544	      0.35376075	    -20.90390669	      2.67868593	      2.58017117	    -13.76107093	      6.14007774	     -4.32614767	     15.46314251	     29.73089202	     -2.05913390	     -5.88071056	    -11.36378615	     -0.93267972	     -9.10773652	      5.65378576	      1.00168158	      4.59338317	     12.23616145
      1.26700000	     -1.45905530	     -1.32350636	     -7.43612345	      0.18089442	      0.95438009	      0.35335041	    -20.70115134	      2.42770114	      2.57900965	    -14.41296888	      5.48565690	     -4.56358986	     15.50727176	     29.98706035	     -1.78739255	     -5.79582610	    -12.17312883	     -1.42819953	     -9.46938083	      5.63389611	      1.28219042	      4.32089794	     12.25672268
      1.27116667	     -1.57165721	     -1.09378038	     -7.36664306	      0.18746497	      0.95421798	      0.35287170	    -20.48311244	      2.17027031	      2.49508070	    -15.13594262	      4.78570735	     -4.73688481	     15.59407499	     30.20442208	     -1.48428956	     -5.65074008	    -12.96115013	     -1.89625520	     -9.86520449	      5.61991645	      1.52057581	      4.04256823	     12.26919249
      1.27533333	     -1.67527731	     -0.85545635	     -7.28639504	      0.19404384	      0.95411380	      0.35234787	    -20.23841288	      1.90125422	      2.38953298	    -15.91378354	      4.04646245	     -4.86706111	     15.73027167	     30.40208799	     -1.16236219	     -5.49784960	    -13.73423829	     -2.32861317	    -10.24642932	      5.60899900	      1.74705950	      3.75779058	     12.27476157
      1.27950000	     -1.77260643	     -0.61411611	     -7.20998966	      0.20059456	      0.95407211	      0.35180394	    -19.94427815	      1.62155349	      2.26439179	    -16.78392232	      3.27107565	     -4.96198879	     15.98757274	     30.57444107	     -0.83333485	     -5.32873017	    -14.47761193	     -2.70998149	    -10.63097310	      5.59807554	      1.95693473	      3.48076740	     12.26792814
